<svg class="aah-logo" viewBox="0 0 171 101" fill="none" xmlns="http://www.w3.org/2000/svg">
    <g clip-path="url(#clip0_709_2536)">
        <path
            d="M102.955 48.7369L95.9023 67.0321H100.961L102.226 63.8545H108.793L109.977 67.0321H115.061L108.16 48.7369H102.955ZM103.539 60.2146L105.509 54.3909H105.558L107.512 60.2117L103.539 60.2146ZM164.87 83.2394C167.509 82.7742 169.138 80.5549 169.138 77.742C169.138 73.7167 166.345 71.7558 162.44 71.7558H154.783V91.2101H159.852V83.7326H159.904L164.689 91.216H171.004L164.87 83.2394ZM160.292 80.4781H159.848V75.623H160.292C162.808 75.623 163.862 76.3982 163.862 78.0491C163.862 79.6999 162.776 80.4752 160.292 80.4752V80.4781ZM103.101 27.4457H98.5219V22.7619H113.224V27.4457H108.636V44.0325H103.101V27.4457ZM87.3641 56.814H96.8258C96.8007 59.0702 96.5298 60.7698 96.0962 61.9098C94.7331 65.4226 91.742 67.6375 87.3833 67.6375C81.6675 67.6375 77.6063 63.7983 77.6063 57.9805C77.6063 51.9618 81.6926 48.1286 87.5535 48.1286C91.3231 48.1286 94.2417 49.8281 95.8224 53.2494L91.3054 55.1395C90.5994 53.2967 89.1638 52.2291 87.3404 52.2291C83.9837 52.2291 82.5732 55.5279 82.5732 58.0027C82.5732 60.4302 83.9837 63.7289 87.4129 63.7289C89.6507 63.7289 91.0612 62.5166 91.261 60.5513H87.3685L87.3641 56.814ZM115.948 48.7369H120.713V67.0321H115.948V48.7369ZM160.237 67.0321V52.7622H156.297V48.7369H168.944V52.7651H165.004V67.0321H160.237ZM153.067 44.0325H147.524V22.7693H153.067L163.217 35.7753H163.274V22.7619H168.815V44.0251H163.274L153.123 30.9925H153.067V44.0325ZM134.177 44.7383C140.171 44.7383 145.798 40.4561 145.798 33.0037C145.798 26.4859 140.059 22.0576 134.007 22.0576C131.47 22.0429 128.992 22.8114 126.91 24.2577C125.779 25.0477 122.217 27.6716 122.217 33.2562C122.217 39.0681 126.456 44.7383 134.177 44.7383ZM133.979 27.4177C137.235 27.4177 140.031 30.0401 140.031 33.0288C140.031 36.5844 137.401 39.3782 134.007 39.3782C130.671 39.3782 127.985 36.6701 127.985 33.0288C127.985 29.984 130.869 27.4177 133.979 27.4177ZM120.519 44.0325H114.978V22.7693H120.519V44.0325ZM141.773 71.7528H152.873V76.035H146.846V79.2835H152.562V83.5657H146.846V86.9206H152.873V91.2027H141.773V71.7528ZM112.912 71.7528H117.981V91.2101H112.905L103.619 79.288H103.567V91.2101H98.4982V71.7528H103.567L112.853 83.6484H112.905L112.912 71.7528ZM130.036 80.3452H140.1C140.075 82.7462 139.791 84.5521 139.325 85.7644C137.865 89.5061 134.685 91.8539 130.054 91.8539C123.977 91.8539 119.657 87.777 119.657 81.5826C119.657 75.183 124.002 71.0987 130.236 71.0987C134.245 71.0987 137.349 72.9061 139.03 76.5429L134.219 78.5644C133.468 76.602 131.942 75.4635 130.002 75.4635C126.434 75.4635 124.933 78.972 124.933 81.6048C124.933 84.1844 126.434 87.6943 130.08 87.6943C132.46 87.6943 133.96 86.4037 134.167 84.3143H130.023L130.036 80.3452ZM136.033 48.7369H140.8V67.0321H136.033L127.301 55.8232H127.252V67.0321H122.486V48.7369H127.254L135.986 59.9237H136.035L136.033 48.7369ZM81.6689 38.9913C80.7632 37.4113 80.2822 35.5493 80.2822 33.4334C80.2822 26.8049 85.7686 22.2111 91.5303 22.2111C93.3063 22.2111 94.924 22.6069 96.592 23.2832V29.9131C95.4894 28.4173 93.6512 27.5712 91.7286 27.5712C88.4489 27.5712 86.0454 30.0534 86.0454 33.4673C86.0454 36.9374 88.477 39.2497 91.8174 39.2497C92.7301 39.2405 93.63 39.0341 94.455 38.6446C95.28 38.2551 96.0106 37.6918 96.5964 36.9935V43.6234C93.7474 44.4843 93.0074 44.6024 91.705 44.6024C87.663 44.6024 83.6477 42.3683 81.6689 38.9913ZM91.3794 71.7528H96.4499V82.9263C96.4499 85.1722 96.2412 86.668 95.5959 87.9586C94.4578 90.2296 91.7938 91.7254 87.9398 91.7254C85.8959 91.7254 83.2585 91.2824 81.4736 89.5578C79.921 88.0354 79.4297 86.2029 79.4297 82.9263V71.7528H84.5002V82.1777C84.5002 84.6879 84.7844 87.2882 87.9398 87.2882C91.0478 87.2882 91.3794 84.7588 91.3794 82.2043V71.7528ZM66.3996 48.7369L59.3458 67.0321H64.4045L65.6699 63.8545H72.2353L73.4282 67.0321H78.5106L71.6033 48.7369H66.3996ZM66.9827 60.2146L68.9526 54.3909H69.0015L70.9551 60.2117L66.9827 60.2146ZM66.6867 40.3409H74.3147L75.7 44.0325H81.6112L73.5821 22.7693H67.5288L59.3295 44.0325H65.2111L66.6867 40.3409ZM70.5037 29.3387H70.5599L72.8229 36.109H68.2082L70.5037 29.3387ZM72.3271 71.7558H77.3961V91.2101H72.3211V83.2364H65.001V91.2101H59.9319V71.7528H65.001V79.2629H72.3211L72.3271 71.7558ZM155.612 60.8658C155.612 63.1235 154.931 64.7965 153.715 65.7918C152.183 67.0292 150.36 67.515 148.486 67.515C146.224 67.515 143.939 66.7383 142.066 65.4285L144.11 61.5893C145.641 62.9183 146.979 63.4823 148.316 63.4823C149.679 63.4823 150.651 62.7795 150.651 61.6381C150.651 60.2796 148.803 59.8661 147.758 59.5516C145.325 58.7749 142.795 58.3378 142.795 54.3835C142.795 50.6462 145.446 48.2452 149.094 48.2452C151.11 48.2837 153.089 48.7989 154.866 49.7484L152.969 53.4399C152.089 52.6802 150.971 52.2514 149.808 52.2276C148.738 52.2276 147.765 52.8567 147.765 53.7559C147.765 54.5799 148.493 55.1144 150.269 55.6238C151.193 55.8911 152.045 56.1333 152.774 56.498C154.518 57.3485 155.612 58.6302 155.612 60.8658Z"
            fill="#FFF"></path>
        <path
            d="M25.9166 56.0905C21.4648 56.0902 17.1129 57.407 13.4112 59.8744C9.70953 62.3418 6.82438 65.849 5.12061 69.9524C3.41683 74.0558 2.97097 78.5711 3.83941 82.9273C4.70784 87.2836 6.85157 91.285 9.99947 94.4257C13.1474 97.5663 17.1581 99.7051 21.5244 100.572C25.8907 101.438 30.4164 100.993 34.5293 99.2933C38.6422 97.5935 42.1575 94.715 44.6306 91.0218C47.1037 87.3287 48.4236 82.9868 48.4233 78.5452C48.4233 75.5964 47.8411 72.6765 46.7101 69.9522C45.579 67.2278 43.9212 64.7524 41.8312 62.6673C39.7413 60.5822 37.2602 58.9282 34.5295 57.7997C31.7989 56.6713 28.8722 56.0905 25.9166 56.0905ZM25.9166 91.2086H25.9092C19.2743 91.2086 13.5614 85.8072 13.8959 78.8908C14.3399 69.693 22.4992 68.3729 25.2994 64.2605C25.3645 64.1574 25.4547 64.0725 25.5616 64.0136C25.6685 63.9547 25.7886 63.9238 25.9107 63.9238C26.0328 63.9238 26.1529 63.9547 26.2598 64.0136C26.3667 64.0725 26.4569 64.1574 26.5219 64.2605C29.3207 68.3758 37.4741 69.6944 37.9181 78.8937C38.2689 85.8072 32.556 91.2057 25.9196 91.2086H25.9166Z"
            fill="#0074BE"></path>
        <path
            d="M51.8081 16.3992L51.7992 16.0758L51.4766 16.1112C45.8464 16.7453 40.5459 19.0849 36.2886 22.815C36.3108 22.372 36.3212 21.9291 36.3212 21.5053C36.3212 13.0694 32.6034 5.29359 26.1209 0.172716L25.9122 0.00585938L25.702 0.172716C19.221 5.29359 15.5017 13.0694 15.5017 21.5053C15.5017 21.932 15.5136 22.3706 15.5343 22.815C11.2784 19.0822 5.97841 16.7401 0.347805 16.1038L0.0251603 16.0684L0.0148003 16.3992C0.00592014 16.6856 0 16.9736 0 17.2615C0 26.3412 4.61766 34.3902 11.812 39.5302C13.4963 40.7337 15.2856 41.9844 17.0631 43.1317C20.4672 45.3348 23.6966 47.4138 24.9975 49.71C25.0833 49.8785 25.2141 50.0201 25.3755 50.119C25.537 50.2179 25.7227 50.2702 25.9122 50.2702C26.1016 50.2702 26.2874 50.2179 26.4488 50.119C26.6103 50.0201 26.7411 49.8785 26.8268 49.71C28.1278 47.4138 31.3483 45.3348 34.7597 43.1317C36.5358 41.9844 38.3281 40.7337 40.0109 39.5302C47.2067 34.3887 51.8229 26.3412 51.8229 17.2615C51.8229 16.9677 51.817 16.6797 51.8081 16.3992Z"
            fill="#50B848"></path>
    </g>
    <defs>
        <clipPath id="clip0_709_2536">
            <rect width="171" height="101" fill="white"></rect>
        </clipPath>
    </defs>
</svg>