<svg
    xmlns="http://www.w3.org/2000/svg" x="0" y="0" viewBox="0 0 160 50">

    <path style="fill:#FFF"
        d="M41.5 17.2v3.2c-2.1 1.2-4.6 1.7-7.3 1.7-2.3 0-4.2-.5-5.7-1.4-1.6-.9-2.8-2.2-3.7-3.7-.9-1.6-1.4-3.3-1.4-5.2 0-2.9 1-5.4 3.1-7.4s4.7-3 7.8-3c2.1 0 4.5.6 7.1 1.7v3.1c-2.4-1.3-4.7-2-6.9-2-2.3 0-4.2.7-5.8 2.2-1.5 1.5-2.3 3.3-2.3 5.5s.8 4 2.3 5.5c1.5 1.4 3.4 2.1 5.8 2.1 2.3-.1 4.7-.8 7-2.3zm14.4-3.9L52.6 6l-3 7.3h6.3zM51.7 1.6h2l9.1 20.3h-3l-2.7-6h-8.6l-2.5 6h-3l8.7-20.3zm13.3.1h2.9v17.5h9v2.7H65V1.7zm20.2 2.5h-3v6.3h3.2c1.2 0 2.1-.3 2.7-.8.6-.6 1-1.3 1-2.4 0-2-1.3-3.1-3.9-3.1zm-5.9 17.7V1.6h6.4c1.9 0 3.5.5 4.6 1.6 1.1 1 1.7 2.4 1.7 4.2 0 1.2-.3 2.2-.9 3.1-.6.9-1.4 1.6-2.4 2-1 .4-2.5.6-4.4.6h-2.1v8.8h-2.9zm-40.4 6h2.5v18.4h-2.2L26.9 32.1v14.2h-2.5V27.9h2.1l12.4 14.3V27.9zm5.4 0h10.5v2.4H47v5.6h7.5v2.3H47V44h8v2.3H44.3V27.9zm12.5 0h15.4v2.3h-6.5v16.1h-2.6V30.2h-6.3v-2.3zm42.4 0h2.6l-7.4 18.5h-.6l-6-15-6.1 15h-.6l-7.4-18.5h2.7l5 12.7 5.1-12.7H89l5.2 12.7 5-12.7zm12.2 2.2c-2.1 0-3.8.7-5.2 2-1.4 1.3-2 3-2 5s.7 3.6 2 5c1.4 1.3 3.1 2 5.1 2 2.1 0 3.8-.7 5.1-2 1.4-1.3 2.1-3 2.1-5s-.7-3.6-2.1-4.9c-1.3-1.4-3-2.1-5-2.1zm-.1-2.5c2.8 0 5.2.9 7.1 2.7 1.9 1.8 2.8 4.1 2.8 6.8s-1 5-2.9 6.7c-1.9 1.8-4.3 2.7-7.2 2.7-2.8 0-5.1-.9-6.9-2.7-1.8-1.8-2.8-4-2.8-6.7 0-2.8.9-5 2.8-6.8 1.9-1.8 4.3-2.7 7.1-2.7zm15.6 2.5h-.8V36h1c1.3 0 2.3-.1 2.7-.3.5-.2.9-.6 1.2-1 .3-.5.4-1 .4-1.6 0-.6-.2-1.1-.5-1.6s-.7-.8-1.3-1c-.4-.3-1.4-.4-2.7-.4zm-3.4 16.2V27.9h4.6c1.9 0 3.3.5 4.4 1.4 1.1.9 1.6 2.2 1.6 3.7 0 1.1-.3 2-.8 2.8-.5.8-1.3 1.4-2.3 1.8.6.4 1.2.9 1.7 1.6.6.7 1.4 1.8 2.4 3.5.6 1 1.2 1.8 1.5 2.4l1 1.3h-3.1l-.8-1.2-.2-.2-.5-.7-.8-1.3-.9-1.4c-.5-.8-1-1.4-1.5-1.8-.5-.4-.9-.8-1.2-1-.4-.2-1-.3-1.8-.3h-.7v8h-2.6v-.2zm26.7-18.4h3.3l-8 8.7 9.9 9.7h-3.6l-9.4-9.1v9.1h-2.6V27.9h2.6v8.4l7.8-8.4zM7.2 56.6v.9c-.6.3-1.2.5-2 .5-.6 0-1.1-.1-1.6-.4-.4-.2-.8-.6-1-1-.2-.4-.4-.9-.4-1.4 0-.8.3-1.5.9-2 .6-.5 1.3-.8 2.1-.8.6 0 1.2.2 1.9.5v.8c-.6-.4-1.3-.6-1.9-.6-.6 0-1.2.2-1.6.6-.4.4-.6.9-.6 1.5s.2 1.1.6 1.5c.4.4.9.6 1.6.6.7-.1 1.4-.3 2-.7zm4.9-4.2h.8v5.5h-.8v-2.4H9v2.4h-.8v-5.5H9v2.4h3.1v-2.4zm4.8.7c-.6 0-1.1.2-1.6.6-.4.4-.6.9-.6 1.5s.2 1.1.6 1.5c.4.4.9.6 1.5.6s1.1-.2 1.5-.6c.4-.4.6-.9.6-1.5s-.2-1.1-.6-1.5c-.3-.4-.8-.6-1.4-.6zm-.1-.8c.9 0 1.6.3 2.1.8.6.5.8 1.2.8 2s-.3 1.5-.9 2c-.6.5-1.3.8-2.2.8-.8 0-1.5-.3-2.1-.8-.6-.5-.8-1.2-.8-2s.3-1.5.8-2c.8-.5 1.5-.8 2.3-.8zm4 .1h.8v5.5h-.8v-5.5zm6.8 4.2v.9c-.6.3-1.2.5-2 .5-.6 0-1.1-.1-1.6-.4-.4-.2-.8-.6-1-1-.2-.4-.4-.9-.4-1.4 0-.8.3-1.5.9-2 .6-.5 1.3-.8 2.1-.8.6 0 1.2.2 1.9.5v.8c-.6-.4-1.3-.6-1.9-.6-.6 0-1.2.2-1.6.6-.4.4-.6.9-.6 1.5s.2 1.1.6 1.5c.4.4.9.6 1.6.6.7-.1 1.4-.3 2-.7zm1-4.2h3.1v.7h-2.3v1.7h2.3v.7h-2.3v1.7h2.4v.7h-3.2v-5.5zm8 2.2.3-.2c.3-.2.4-.4.4-.7 0-.2-.1-.3-.2-.4-.1-.1-.3-.2-.4-.2-.2 0-.3.1-.4.2-.1.1-.2.2-.2.4 0 .1 0 .3.1.5.1.1.2.3.4.4zm.5 2.2.2-.2-.9-1-.4.2c-.4.3-.6.6-.6.8 0 .2.1.3.2.4.1.1.3.2.5.2.1 0 .3 0 .5-.1s.3-.2.5-.3zm1.3 1.1-.6-.8c-.1.1-.2.1-.3.2-.2.2-.4.3-.7.4-.3.2-.6.3-.8.3-.4 0-.7-.1-1-.4-.3-.2-.4-.6-.4-.9 0-.3.1-.5.2-.7.1-.2.3-.4.6-.6.2-.1.3-.2.4-.3-.4-.4-.6-.9-.6-1.3s.1-.7.4-.9c.3-.2.6-.4 1-.4s.7.1 1 .3c.3.2.4.5.4.9 0 .5-.3 1-1 1.4h-.1l.8.9c.2-.2.4-.5.6-.9h.8c-.2.5-.5 1-.9 1.4l1.1 1.3h-.9v.1zm5.7-4.8h-1v4.1h1c.4 0 .7 0 .9-.1.2-.1.4-.1.5-.2.1-.1.3-.2.4-.3.4-.4.6-.9.6-1.5s-.2-1.1-.6-1.4c-.1-.1-.3-.3-.5-.3-.2-.1-.4-.1-.5-.2-.1-.1-.4-.1-.8-.1zm-1.7 4.8v-5.5h1.9c.7 0 1.3.1 1.8.3.4.2.8.6 1 1 .3.4.4.9.4 1.4 0 .4-.1.7-.2 1.1-.1.3-.3.6-.6.9-.3.3-.6.5-.9.6-.2.1-.4.1-.6.2h-2.8zm6.1-5.5h.7v5.5h-.7v-5.5zm5 2.8h1.8v2.3c-.7.3-1.4.4-2 .4-.9 0-1.6-.3-2.2-.8-.5-.5-.8-1.2-.8-2s.3-1.5.8-2.1c.6-.5 1.3-.8 2.1-.8.3 0 .6 0 .9.1.3.1.6.2 1.1.4v.8c-.7-.4-1.3-.6-2-.6-.6 0-1.1.2-1.5.6-.4.4-.6.9-.6 1.5s.2 1.1.6 1.5c.4.4.9.6 1.6.6.3 0 .7-.1 1.1-.2h.1v-1.1h-1.1v-.6h.1zm7.4-2.8h.7v5.5H61l-3.7-4.2v4.2h-.8v-5.5h.7l3.7 4.3v-4.3zm2 0h.8v5.5h-.8v-5.5zm1.6 0h4.6v.7h-2v4.8h-.8v-4.8h-1.8v-.7zm8.6 0h1l-2 2.6v2.9h-.8V55l-2.1-2.6h1l1.5 1.9 1.4-1.9zm3.9 0h3v.7h-2.2v1.5H80v.7h-2.2v2.6H77v-5.5zm6.6.7c-.6 0-1.1.2-1.6.6-.4.4-.6.9-.6 1.5s.2 1.1.6 1.5c.4.4.9.6 1.5.6s1.1-.2 1.5-.6c.4-.4.6-.9.6-1.5s-.2-1.1-.6-1.5c-.3-.4-.8-.6-1.4-.6zm0-.8c.9 0 1.6.3 2.1.8.6.5.8 1.2.8 2s-.3 1.5-.9 2c-.6.5-1.3.8-2.2.8-.8 0-1.5-.3-2.1-.8-.6-.5-.8-1.2-.8-2s.3-1.5.8-2c.7-.5 1.4-.8 2.3-.8zm5 .8h-.2v1.7h.3c.4 0 .7 0 .8-.1.1-.1.3-.2.3-.3.1-.1.1-.3.1-.5s0-.3-.1-.5c-.1-.1-.2-.2-.4-.3h-.8zm-1 4.8v-5.5H89c.6 0 1 .1 1.3.4.3.3.5.6.5 1.1 0 .3-.1.6-.2.8-.2.2-.4.4-.7.5.2.1.3.3.5.5s.4.5.7 1c.2.3.3.5.5.7l.3.4H91l-.2-.4v-.1l-.2-.2-.2-.4-.3-.4c-.2-.2-.3-.4-.4-.5-.1-.1-.3-.2-.4-.3-.1-.1-.3-.1-.6-.1h-.2v2.4h-.9v.1zm8.7-4.8h-.8v1.7h.9c.3 0 .6-.1.7-.2.2-.2.3-.4.3-.6-.1-.6-.4-.9-1.1-.9zm-1.6 4.8v-5.5h1.7c.5 0 .9.1 1.3.4.3.3.5.7.5 1.1 0 .3-.1.6-.2.9-.2.2-.4.4-.7.5-.3.1-.7.2-1.2.2h-.6v2.4h-.8zm4.2-5.5h3.1v.7h-2.3v1.7h2.2v.7h-2.2v1.7h2.4v.7h-3.2v-5.5zm6.8.7c-.6 0-1.1.2-1.6.6-.4.4-.6.9-.6 1.5s.2 1.1.6 1.5c.4.4.9.6 1.5.6s1.1-.2 1.5-.6c.4-.4.6-.9.6-1.5s-.2-1.1-.6-1.5c-.3-.4-.8-.6-1.4-.6zm0-.8c.9 0 1.6.3 2.1.8.6.5.8 1.2.8 2s-.3 1.5-.9 2c-.6.5-1.3.8-2.2.8-.8 0-1.5-.3-2.1-.8-.6-.5-.8-1.2-.8-2s.3-1.5.8-2c.7-.5 1.4-.8 2.3-.8zm5.5.8h-.8v1.7h.9c.3 0 .6-.1.7-.2.2-.2.3-.4.3-.6 0-.6-.4-.9-1.1-.9zm-1.6 4.8v-5.5h1.7c.5 0 .9.1 1.3.4.3.3.5.7.5 1.1 0 .3-.1.6-.2.9-.2.2-.4.4-.7.5-.3.1-.7.2-1.2.2h-.6v2.4h-.8zm4.2-5.5h.8v4.8h2.5v.7h-3.3v-5.5zm4 0h3.1v.7h-2.3v1.7h2.2v.7h-2.2v1.7h2.4v.7h-3.2v-5.5zm6.3 0h.8v5.5h-.8v-5.5zm6.5 0h.7v5.5h-.7l-3.6-4.2v4.2h-.8v-5.5h.7l3.7 4.3v-4.3zm9 4.2v.9c-.6.3-1.2.5-2 .5-.6 0-1.1-.1-1.6-.4-.4-.2-.8-.6-1-1-.2-.4-.4-.9-.4-1.4 0-.8.3-1.5.9-2 .6-.5 1.3-.8 2.1-.8.6 0 1.2.2 1.9.5v.8c-.6-.4-1.3-.6-1.9-.6-.6 0-1.2.2-1.6.6-.4.4-.6.9-.6 1.5s.2 1.1.6 1.5c.4.4.9.6 1.6.6.7-.1 1.3-.3 2-.7zm2-3.5h-.2v1.7h.3c.4 0 .7 0 .8-.1.1-.1.3-.2.3-.3.1-.1.1-.3.1-.5s0-.3-.1-.5c-.1-.1-.2-.2-.4-.3h-.8zm-1 4.8v-5.5h1.4c.6 0 1 .1 1.3.4.3.3.5.6.5 1.1 0 .3-.1.6-.2.8-.2.2-.4.4-.7.5.2.1.3.3.5.5s.4.5.7 1c.2.3.3.5.5.7l.3.4h-.9l-.2-.4v-.1l-.2-.2-.2-.4-.3-.4c-.2-.2-.3-.4-.4-.5-.1-.1-.3-.2-.4-.3-.1-.1-.3-.1-.6-.1h-.2v2.4h-.9v.1zm4.9-5.5h.8v5.5h-.8v-5.5zm3.4 3.2-.6-.4c-.4-.2-.6-.5-.8-.7-.2-.2-.2-.5-.2-.8 0-.4.2-.8.5-1.1.3-.3.7-.4 1.2-.4s.9.1 1.3.4v.9c-.4-.4-.8-.6-1.3-.6-.3 0-.5.1-.6.2-.2.1-.2.3-.2.5s.1.3.2.5c.1.1.3.3.6.5l.6.4c.7.4 1 .9 1 1.5 0 .4-.1.8-.4 1.1-.3.3-.7.4-1.2.4s-1-.2-1.5-.5v-1c.4.5.9.8 1.5.8.2 0 .5-.1.6-.2.2-.1.2-.3.2-.5-.2-.4-.4-.7-.9-1zm2.4-3.2h.8v5.5h-.8v-5.5zM154.7 55.6l-.6-.4c-.4-.2-.6-.5-.8-.7-.2-.2-.2-.5-.2-.8 0-.4.2-.8.5-1.1.3-.3.7-.4 1.2-.4s.9.1 1.3.4v.9c-.4-.4-.8-.6-1.3-.6-.3 0-.5.1-.6.2-.2.1-.2.3-.2.5s.1.3.2.5c.1.1.3.3.6.5l.6.4c.7.4 1 .9 1 1.5 0 .4-.1.8-.4 1.1-.3.3-.7.4-1.2.4s-1-.2-1.5-.5v-1c.4.5.9.8 1.5.8.2 0 .5-.1.6-.2.2-.1.2-.3.2-.5-.2-.4-.4-.7-.9-1zM17.6 16.2c-1.2-.9-2.8-1.1-4.1-.7l-3.3-6.6c.4-.3.7-.6 1-1 1.6-2.2 1-5.3-1.2-6.9C7.7-.6 4.6 0 3 2.2 1.5 4.4 2 7.5 4.3 9.1c1.3.9 2.9 1.1 4.3.7l3.3 6.6c-.4.3-.8.7-1.1 1.1-1.6 2.2-1 5.3 1.2 6.9.2.1.3.2.5.3l-2.7 6.6c-3.1-.8-6.4.4-8.3 3.1-2.5 3.5-1.6 8.4 1.9 10.9s8.4 1.6 10.9-1.9 1.6-8.4-1.9-10.9c-.3-.2-.6-.4-.9-.5l2.7-6.7c1.7.2 3.5-.6 4.6-2.1 1.6-2.4 1-5.5-1.2-7z" />

</svg>