<svg width="120" height="60" viewBox="0 0 151 42" fill="none" xmlns="http://www.w3.org/2000/svg">
	<path fill-rule="evenodd" clip-rule="evenodd"
		d="M30.7893 35.075H30.9015L30.9004 35.0761L31.1813 40.3991H37.3378V19.3391H20.3349V25.5443H30.051V25.7644C30.051 30.1441 25.9296 34.7439 19.6543 34.7439C12.7117 34.7439 8.35934 28.5931 8.35934 20.7224C8.35934 12.8517 12.1432 6.64641 19.7675 6.64641C24.9692 6.64641 27.9603 9.42173 28.8652 13.2438H36.8892C35.5902 5.48203 29.7712 0 19.5999 0C14.1806 0 9.88376 1.60442 6.61286 4.53877C2.37268 8.36737 0 14.1315 0 20.7224C0 26.7076 1.92302 31.8041 5.25054 35.4671C8.58584 39.0681 13.3312 41.2247 19.4311 41.2247C24.2331 41.2247 28.017 39.6203 30.7893 35.075ZM48.99 28.1465H40.9727V28.1476C41.2536 36.5149 47.4656 41.2803 58.4241 41.2803C67.5218 41.2803 74.128 36.7959 74.128 28.7597C74.128 20.2268 67.3542 18.2847 59.0492 16.5147C53.0615 15.2349 50.2391 14.2971 50.2391 11.0817C50.2391 8.25844 53.1181 6.42638 57.5259 6.42638C61.7028 6.42638 64.8682 8.42291 65.3179 12.4105H73.1732C72.5481 4.42875 66.5659 0.055542 57.5814 0.055542C48.597 0.055542 42.1029 4.09763 42.104 11.9139C42.104 20.1701 48.7102 22.0512 55.9404 23.6622L56.3608 23.7566C62.2715 25.0837 65.943 25.908 65.943 29.7019C65.943 33.3584 62.2713 34.7983 58.0877 34.7983C52.3242 34.7983 49.5585 32.9118 48.99 28.1465ZM76.4707 20.7224C76.4707 8.97407 83.9318 0 95.8452 0C105.792 0 111.668 5.81315 112.511 13.3538H104.381C103.644 9.35965 100.591 6.75642 95.8452 6.75642C88.3896 6.75642 84.8312 12.8517 84.8312 20.7224C84.8312 28.5931 89.1269 34.6339 95.9085 34.6339C100.704 34.6339 104.095 31.8041 104.606 27.6509H112.624C112.4 31.1429 110.875 34.5238 108.166 37.0171C105.394 39.5647 101.498 41.2258 95.9096 41.2258C84.5514 41.2258 76.4718 32.6373 76.4718 20.7235L76.4707 20.7224ZM134.219 0C122.299 0 114.844 8.97407 114.844 20.7224L114.846 20.7235C114.846 32.6373 122.926 41.2258 134.277 41.2258C139.871 41.2258 143.768 39.5647 146.534 37.0171C149.244 34.5238 150.774 31.1429 150.998 27.6509H142.974C142.468 31.8041 139.078 34.6339 134.276 34.6339C127.495 34.6339 123.205 28.5931 123.205 20.7224C123.205 12.8517 126.764 6.75642 134.219 6.75642C138.965 6.75642 142.011 9.35965 142.749 13.3538H150.885C150.035 5.81315 144.16 0 134.219 0Z"
		fill="white"></path>
</svg>