<?xml version="1.0" encoding="UTF-8"?>
<svg width="188px" height="51px" viewBox="0 0 188 51" version="1.1"
    xmlns="http://www.w3.org/2000/svg" xmlns:xlink="http://www.w3.org/1999/xlink">
    <!-- Generator: Sketch 46.1 (44463) - http://www.bohemiancoding.com/sketch -->
    <title>Page 1</title>
    <desc>Created with Sketch.</desc>
    <defs />
    <g id="Page-1" stroke="none" stroke-width="1" fill="none" fill-rule="evenodd">
        <g id="FemDef_Blogg_Start" transform="translate(-56.000000, -76.000000)" fill="#FFFF">
            <g id="Group" transform="translate(0.000000, 60.000000)">
                <g id="Page-1" transform="translate(56.000000, 16.000000)">
                    <polygon id="Fill-1"
                        points="60.2973217 0 52.5671004 9.03297532 52.5671004 0 48 0 48.0085478 22 52.5671004 22 52.5671004 15.7675188 54.6160129 13.3115592 60.6200019 22 66 22 57.8086238 9.72480791 65.9487131 0" />
                    <polygon id="Fill-2"
                        points="86.8860264 0 81.498895 14.0052342 76.1135316 0 71 0 79.4418135 22 83.5710046 22 92 0" />
                    <polygon id="Fill-3"
                        points="175.430144 0 167 22 172.114308 22 177.499558 7.99476582 182.886576 22 188 22 179.557922 0" />
                    <polygon id="Fill-4" points="99 0 99.0106363 22 103.989364 22 104 0" />
                    <polygon id="Fill-5"
                        points="127.164092 0 127.164092 14.1623014 116.529723 0 112.002722 0 112 22 116.840444 22 116.840444 8.21447564 127.164092 22 131.970062 22 132 0" />
                    <polygon id="Fill-6"
                        points="157.163858 0 157.163858 14.1621373 146.530424 0 142.003175 0 142 22 146.840678 22 146.840678 8.21418701 157.163858 22 161.970063 22 162 0" />
                    <polygon id="Fill-7" points="0 11 37 11 37 0 0 0" />
                    <polygon id="Fill-8" points="0 30 37 30 37 19 0 19" />
                    <polygon id="Fill-9" points="0 51 37 51 37 40 0 40" />
                    <polygon id="Fill-10"
                        points="60.2973217 29 52.5671004 38.0327038 52.5671004 29 48 29 48.0085478 51 52.5671004 51 52.5671004 44.7678489 54.6160129 42.3118379 60.6200019 51 66 51 57.8086238 38.7250115 65.9487131 29" />
                    <polygon id="Fill-11"
                        points="86.8860264 29 81.498895 43.0055274 76.1135316 29 71 29 79.4418135 51 83.5710046 51 92 29" />
                    <polygon id="Fill-12"
                        points="175.430144 29 167 51 172.114308 51 177.499558 36.9949332 182.886576 51 188 51 179.557922 29" />
                    <polygon id="Fill-13" points="99 29 99.0106363 51 103.989364 51 104 29" />
                    <polygon id="Fill-14"
                        points="127.164092 29 127.164092 43.1621373 116.529723 29 112.002722 29 112 51 116.840444 51 116.840444 37.214187 127.164092 51 131.970062 51 132 29" />
                    <polygon id="Fill-15"
                        points="157.163858 29 157.163858 43.1623014 146.530424 29 142.003175 29 142 51 146.840678 51 146.840678 37.2144756 157.163858 51 161.970063 51 162 29" />
                </g>
            </g>
        </g>
    </g>
</svg>