<svg xmlns="http://www.w3.org/2000/svg" viewBox="0 0 260 116" class="logo__SMLogoSVG-sc-1h5rkna-0 dnGSvm">
  <g>
    <path style="fill:#1A1A1A" d="M126.76 45.06h3.84V29.82h5.65v-3.19H121.1v3.19h5.66v15.24zM142.51 37.07c0-.52.09-1.08.35-1.55.22-.39.52-.73.95-.95s.91-.35 1.38-.35c.69-.04 1.34.22 1.81.69.47.56.69 1.25.65 1.99v8.11h3.84v-8.76c.04-.95-.17-1.9-.6-2.81-.39-.73-.95-1.38-1.68-1.77-.78-.43-1.64-.65-2.5-.6a4.76 4.76 0 0 0-2.63.69c-.69.47-1.21 1.12-1.51 1.94h-.17v-7.08h-3.71v18.43h3.84v-7.98ZM157.27 36.73c0-.47.13-.95.39-1.38s.6-.82 1.04-1.08c.47-.26.99-.43 1.55-.39.52 0 1.04.13 1.47.35s.78.6.99.99c.26.43.39.95.35 1.47h-5.78v.04Zm7.55-3.93c-.6-.56-1.29-1.04-2.07-1.29-.82-.3-1.68-.43-2.55-.43a6.4 6.4 0 0 0-3.54.91 6.23 6.23 0 0 0-2.33 2.5 8.813 8.813 0 0 0 0 7.51c.52 1.04 1.34 1.9 2.37 2.46 1.12.6 2.37.91 3.67.86 1.04 0 2.07-.17 3.02-.52.82-.3 1.55-.82 2.16-1.47.56-.65.95-1.38 1.12-2.24l-3.54-.22c-.13.35-.3.65-.56.86-.26.26-.56.43-.91.56-.39.13-.78.17-1.17.17-.56 0-1.17-.13-1.68-.39a2.6 2.6 0 0 1-1.08-1.17 4.22 4.22 0 0 1-.39-1.77h9.41v-1.04c0-1.04-.13-2.07-.47-3.06-.39-.91-.86-1.64-1.47-2.24ZM125.59 56.84h.17l4.75 11.95h2.59l4.75-11.91h.17v12h3.75V50.45h-4.79l-5.05 12.39h-.21l-5.09-12.39h-4.79v18.43h3.75V56.84zM149.59 58.13c.47-.26.99-.43 1.55-.39.52 0 1.04.13 1.47.35s.78.6.99.99c.26.43.39.95.35 1.47h-5.78c0-.47.13-.95.39-1.38s.6-.78 1.04-1.04Zm7.98 4.79v-1.04c0-1.04-.13-2.07-.47-3.06-.3-.82-.78-1.55-1.38-2.2-.6-.56-1.29-1.04-2.07-1.29-.82-.3-1.68-.43-2.55-.43-1.25-.04-2.46.3-3.54.91a6.23 6.23 0 0 0-2.33 2.5 8.813 8.813 0 0 0 0 7.51c.52 1.04 1.34 1.9 2.37 2.46 1.12.6 2.37.91 3.67.86 1.04 0 2.07-.17 3.02-.52.82-.3 1.55-.82 2.16-1.47.56-.65.95-1.38 1.12-2.24l-3.54-.22c-.13.35-.3.65-.56.86-.26.26-.56.43-.91.56-.39.13-.78.17-1.17.17-.56 0-1.17-.13-1.68-.39a2.6 2.6 0 0 1-1.08-1.17 4.22 4.22 0 0 1-.39-1.77h9.32v-.04ZM163.92 50.45h-3.85v18.43h3.85V50.45zM170.82 55.03h-3.84v13.85h3.84V55.03zM182.69 64.13c-.17.56-.52 1.08-.95 1.47s-.99.56-1.6.56-1.17-.17-1.6-.56c-.47-.39-.78-.91-.99-1.47a7.394 7.394 0 0 1 0-4.32c.17-.56.52-1.08.99-1.51.47-.39 1.04-.56 1.6-.56s1.17.17 1.6.56c.43.39.78.91.95 1.51.43 1.42.43 2.93 0 4.32Zm3.41 1.6a8.724 8.724 0 0 0 0-7.47 6.167 6.167 0 0 0-2.33-2.5 7.694 7.694 0 0 0-7.25 0 6.23 6.23 0 0 0-2.33 2.5 8.724 8.724 0 0 0 0 7.47c.52 1.04 1.34 1.9 2.33 2.5 1.12.6 2.37.95 3.63.91 1.25.04 2.5-.26 3.63-.91.99-.56 1.77-1.47 2.33-2.5ZM196.59 54.85c-.73 0-1.47.22-2.03.65-.65.47-1.08 1.17-1.25 1.94h-.13v-2.42h-3.71v13.81h3.84v-7.81c0-.52.13-1.04.39-1.51.26-.43.6-.78 1.04-.99.47-.26.99-.39 1.51-.35.3 0 .6.04.86.04.26.04.52.09.73.13v-3.41c-.17-.04-.39-.09-.6-.09h-.65ZM202.37 60.55c0-.47.13-.95.39-1.38s.6-.82 1.04-1.08c.47-.26.99-.43 1.55-.39.52 0 1.04.13 1.47.35s.78.6.99.99c.26.43.39.95.35 1.47h-5.78v.04Zm7.51-3.93c-.6-.56-1.29-1.04-2.07-1.29-.82-.3-1.68-.43-2.55-.43-1.25-.04-2.46.3-3.54.91a6.23 6.23 0 0 0-2.33 2.5 8.813 8.813 0 0 0 0 7.51c.52 1.04 1.34 1.9 2.37 2.46 1.12.6 2.37.91 3.67.86 1.04 0 2.07-.17 3.02-.52.82-.3 1.55-.82 2.16-1.47.56-.65.95-1.38 1.12-2.24l-3.54-.22c-.13.35-.3.65-.56.86-.26.26-.56.43-.91.56-.39.13-.78.17-1.17.17-.56 0-1.17-.13-1.68-.39-.47-.26-.86-.65-1.08-1.17a4.22 4.22 0 0 1-.39-1.77h9.41v-1.04c0-1.04-.13-2.07-.47-3.06-.39-.91-.82-1.64-1.47-2.24ZM121.84 92.7l3.88-.04v-7.6h7.51v-3.19h-7.51v-4.4h8.33v-3.19h-12.21V92.7zM144.62 87.96c-.17.56-.52 1.08-.95 1.51-.43.39-.99.56-1.6.56-.6 0-1.17-.17-1.6-.56-.47-.39-.78-.91-.99-1.51a7.394 7.394 0 0 1 0-4.32c.17-.56.52-1.08.99-1.51.43-.39 1.04-.56 1.6-.56s1.17.17 1.6.56c.43.39.78.91.95 1.51.43 1.42.43 2.89 0 4.32Zm1.04-8.37a7.694 7.694 0 0 0-7.25 0 6.23 6.23 0 0 0-2.33 2.5 8.724 8.724 0 0 0 0 7.47c.52 1.04 1.34 1.9 2.33 2.5 1.12.6 2.37.95 3.63.91 1.25.04 2.5-.26 3.63-.91a6.23 6.23 0 0 0 2.33-2.5 8.724 8.724 0 0 0 0-7.47c-.47-1.04-1.29-1.9-2.33-2.5ZM160.07 86.79c0 .56-.09 1.08-.39 1.55-.22.39-.56.73-.99.95-.39.22-.86.3-1.29.3a2.2 2.2 0 0 1-1.73-.69c-.47-.52-.69-1.25-.65-1.94v-8.11h-3.84v8.8c-.04.95.17 1.9.6 2.76.35.73.95 1.38 1.64 1.77.73.43 1.6.65 2.46.65.95.04 1.86-.22 2.63-.73a4.27 4.27 0 0 0 1.55-1.94h.13v2.5h3.67V78.85h-3.84v7.94h.04ZM177.47 79.32a5.18 5.18 0 0 0-2.5-.65 4.76 4.76 0 0 0-2.63.69c-.69.47-1.25 1.12-1.55 1.9h-.17V78.8h-3.67v13.81h3.84v-7.98c0-.52.09-1.04.35-1.51.22-.39.52-.73.91-.95.43-.22.91-.35 1.38-.35.69-.04 1.34.22 1.81.73.47.56.69 1.25.65 1.99v8.11h3.84v-8.8c.04-.95-.17-1.9-.6-2.76-.35-.73-.95-1.34-1.64-1.77ZM191.36 87.91c-.17.56-.52 1.04-.99 1.42-.43.35-.99.52-1.55.52s-1.12-.17-1.6-.52c-.47-.39-.78-.86-.99-1.42-.22-.69-.35-1.42-.35-2.11 0-.73.09-1.42.35-2.11.17-.56.52-1.04.99-1.42.47-.35 1.04-.52 1.6-.52s1.12.17 1.6.47c.47.35.82.86.99 1.38.39 1.42.39 2.93-.04 4.32Zm.26-6.73h-.13c-.17-.43-.43-.78-.73-1.12-.35-.39-.78-.73-1.25-.99-.6-.26-1.25-.43-1.94-.39-.99 0-1.94.26-2.81.78-.91.56-1.6 1.38-2.03 2.37a9.005 9.005 0 0 0-.78 3.97 9.28 9.28 0 0 0 .73 3.88 5.55 5.55 0 0 0 2.03 2.42c.86.56 1.86.82 2.85.82.65 0 1.29-.13 1.9-.39.47-.22.91-.52 1.25-.91.3-.35.56-.73.78-1.12h.17v2.2h3.8V74.27h-3.84v6.91ZM206.51 87.74c0 .47-.13.91-.39 1.29s-.6.69-1.04.91c-.47.22-.99.35-1.51.35s-.99-.13-1.42-.43c-.39-.26-.6-.73-.56-1.21 0-.35.09-.65.26-.91.22-.26.47-.47.78-.56.39-.17.78-.26 1.17-.3l.69-.09c.26-.04.52-.09.78-.13.22-.04.47-.09.69-.17.17-.04.35-.13.47-.22v1.47h.09Zm2.03-7.94c-.56-.39-1.21-.69-1.9-.82a9.72 9.72 0 0 0-2.2-.26c-.99 0-1.99.13-2.89.52-.78.3-1.51.78-2.03 1.42-.52.6-.91 1.38-1.08 2.2l3.54.3c.13-.47.43-.86.82-1.12.47-.35 1.08-.47 1.64-.47.56-.04 1.08.13 1.51.47.39.35.56.82.52 1.34v.04c0 .26-.13.52-.35.65-.35.17-.69.3-1.08.35-.47.09-1.12.13-1.94.22-.65.04-1.29.17-1.94.35-.6.13-1.17.39-1.64.73-.47.3-.86.73-1.17 1.25-.3.6-.43 1.25-.43 1.94-.04.82.17 1.6.6 2.29.39.6.95 1.08 1.64 1.38.73.3 1.55.47 2.37.47.6 0 1.21-.09 1.81-.26.47-.17.95-.43 1.34-.78.35-.3.69-.69.91-1.12h.13v1.9h3.63v-9.32c0-.73-.13-1.47-.47-2.11-.35-.65-.78-1.17-1.34-1.55ZM219.89 89.73c-.17.04-.35.04-.52.04-.22 0-.47-.04-.69-.13s-.35-.22-.47-.39c-.13-.26-.17-.52-.17-.82v-6.69h2.59v-2.89h-2.59v-3.32h-3.84v3.32h-1.9v2.89h1.9v7.21c-.04.78.17 1.55.56 2.24.39.6.95 1.04 1.6 1.29.78.3 1.6.43 2.42.39.43 0 .86-.04 1.25-.13.35-.09.6-.13.82-.22l-.6-2.85-.35.04ZM238.58 87.96c-.17.56-.52 1.08-.95 1.51-.43.39-.99.56-1.6.56-.6 0-1.17-.17-1.6-.56-.47-.39-.78-.91-.99-1.51a7.394 7.394 0 0 1 0-4.32c.17-.56.52-1.08.99-1.51.43-.39 1.04-.56 1.6-.56s1.17.17 1.6.56c.43.39.78.91.95 1.51.43 1.42.43 2.89 0 4.32Zm1.04-8.37a7.694 7.694 0 0 0-7.25 0 6.23 6.23 0 0 0-2.33 2.5 8.724 8.724 0 0 0 0 7.47c.52 1.04 1.34 1.9 2.33 2.5 1.12.6 2.37.95 3.63.91 1.25.04 2.5-.26 3.63-.91.99-.6 1.81-1.47 2.37-2.5a8.724 8.724 0 0 0 0-7.47 6.005 6.005 0 0 0-2.37-2.5ZM257.05 81.14c-.39-.73-.95-1.38-1.68-1.81a5.18 5.18 0 0 0-2.5-.65c-.91-.04-1.81.22-2.63.69-.69.47-1.25 1.12-1.55 1.9h-.17v-2.46h-3.67v13.81h3.84v-7.98c0-.52.09-1.04.35-1.51.22-.39.52-.73.91-.95.43-.22.91-.35 1.38-.35.69-.04 1.34.22 1.81.73.47.56.69 1.25.65 1.99v8.11h3.84v-8.8c.04-.91-.13-1.86-.56-2.72ZM170.82 50.45h-3.84v3.02h3.84v-3.02zM223.13 92.7h3.84V78.85h-3.84V92.7zM223.13 77.3h3.84v-3.02h-3.84v3.02z"/>
    <path style="fill:#1A1A1A" d="m127.88 113.29-3.54-9.11h-2.5v11.66h1.59V106l3.89 9.84h1.12l3.97-9.84v9.84h1.6v-11.66h-2.51l-3.62 9.11zM141.86 113.77c-.65.56-1.38.99-2.24.99s-1.64-.35-1.64-1.38c0-1.25 1.38-1.51 2.37-1.51.43 0 .86.04 1.51.17v1.73Zm-1.81-6.43c-1.17 0-2.42.35-3.28.78l.43 1.25c.65-.35 1.68-.73 2.63-.73 1.38 0 1.94.73 1.94 1.99v.3c-.73-.13-1.25-.17-1.64-.17-1.81 0-3.71.65-3.71 2.76 0 1.77 1.42 2.5 2.93 2.5 1.08 0 1.81-.3 2.5-1.08v.86h1.47v-5.05c.04-2.11-.86-3.41-3.28-3.41ZM154.55 114.67c-.82 0-1.12-.52-1.17-1.38v-4.4h2.33v-1.34h-2.33v-1.99h-1.51v1.99h-1.12v1.34h1.12v4.1c0 .65.09 1.25.26 1.73.35.78 1.08 1.29 2.24 1.29.56 0 1.12-.13 1.55-.35l-.43-1.21c-.26.09-.6.22-.95.22ZM148.81 114.67c-.82 0-1.12-.52-1.17-1.38v-4.4h2.33v-1.34h-2.33v-1.99h-1.51v1.99h-1.12v1.34h1.12v4.1c0 .65.09 1.25.26 1.73.35.78 1.08 1.29 2.24 1.29.56 0 1.12-.13 1.55-.35l-.43-1.21c-.26.09-.6.22-.95.22ZM158.48 110.83c.3-1.25 1.17-2.24 2.5-2.24 1.25 0 2.16 1.04 2.2 2.24h-4.7Zm2.5-3.5c-2.33 0-4.1 1.9-4.1 4.36s1.47 4.36 4.1 4.36c1.68 0 2.81-.6 3.63-1.94l-1.08-.69c-.52.95-1.38 1.34-2.46 1.34-1.6 0-2.59-1.25-2.68-2.68h6.34c.04-.22.09-.56.09-.86-.09-2.24-1.68-3.88-3.84-3.88ZM168.36 108.89v-1.38h-1.51v8.29h1.51v-5.57c.52-.91 1.12-1.38 1.99-1.38.3 0 .52.04.78.17l.3-1.6c-.3-.09-.56-.09-.91-.09-.91 0-1.68.69-2.16 1.55ZM180.44 114.63c-1.55 0-2.68-1.34-2.68-2.98s1.12-2.93 2.68-2.93 2.68 1.34 2.68 2.93c.04 1.64-1.08 2.98-2.68 2.98Zm0-7.29c-2.42 0-4.23 1.94-4.23 4.36s1.81 4.36 4.23 4.36 4.23-1.94 4.23-4.36c.04-2.46-1.77-4.36-4.23-4.36ZM187.61 104.14c-.35.56-.52 1.29-.52 2.16v1.21h-.95v1.34h.95v6.99h1.51v-6.99h2.24v-1.34h-2.24v-1.04c0-.73.04-1.34.43-1.64.22-.17.52-.26.95-.26.39 0 .73.09 1.04.22l.43-1.25a4.05 4.05 0 0 0-1.64-.35c-1.08 0-1.77.35-2.2.95ZM197.36 104.14c-.35.56-.52 1.29-.52 2.16v1.21h-.95v1.34h.95v6.99h1.51v-6.99h2.24v-1.34h-2.24v-1.04c0-.73.04-1.34.43-1.64.22-.17.52-.26.95-.26.39 0 .73.09 1.04.22l.43-1.25a4.05 4.05 0 0 0-1.64-.35c-1.08 0-1.77.35-2.2.95ZM206.99 113.77c-.65.56-1.38.99-2.24.99s-1.64-.35-1.64-1.38c0-1.25 1.38-1.51 2.37-1.51.43 0 .86.04 1.51.17v1.73Zm-1.77-6.43c-1.17 0-2.42.35-3.28.78l.43 1.25c.65-.35 1.68-.73 2.63-.73 1.38 0 1.94.73 1.94 1.99v.3c-.73-.13-1.25-.17-1.64-.17-1.81 0-3.71.65-3.71 2.76 0 1.77 1.42 2.5 2.93 2.5 1.08 0 1.81-.3 2.5-1.08v.86h1.47v-5.05c0-2.11-.86-3.41-3.28-3.41ZM214.8 114.63c-1.42 0-2.72-1.17-2.72-2.98 0-1.64 1.21-2.93 2.72-2.93.6 0 1.21.22 1.68.56l.73-1.25c-.65-.43-1.47-.73-2.33-.73-2.42 0-4.32 1.94-4.32 4.36 0 2.63 1.9 4.36 4.27 4.36.99 0 1.94-.3 2.55-.82l-.73-1.17c-.56.35-1.29.6-1.86.6ZM222.14 114.67c-.82 0-1.12-.52-1.17-1.38v-4.4h2.33v-1.34h-2.33v-1.99h-1.51v1.99h-1.12v1.34h1.12v4.1c0 .65.09 1.25.26 1.73.35.78 1.08 1.29 2.24 1.29.56 0 1.12-.13 1.55-.35l-.43-1.21c-.3.09-.65.22-.95.22ZM225.24 113.89v1.95h1.73v-1.95h-1.73z"/>
  </g>
  <path style="fill:#00F500" d="M77.51 0h27.71v92.7H77.51V0z"/>
  <path style="fill:#FFF" d="m31.65.11 40.66 67.02-16.02 25.68L.02.11h31.63z"/>
  <path style="fill:#0000FF" d="M24.38 64.22H14.2L0 41.35v44.93c0 3.54 2.85 6.39 6.39 6.39h24.38V64.23h-6.39Z"/>
</svg>
