<?xml version="1.0" encoding="UTF-8"?><svg id="Layer_1" xmlns="http://www.w3.org/2000/svg" viewBox="0 0 186.59 298.85"><defs><style>.cls-1{fill:#4285f4;}.cls-2{fill:#aecbfa;}.cls-3{fill:#5e97f6;}</style></defs><path class="cls-2" d="M92.3,0c-14.97,0-26.19,11.22-26.19,26.19,0,4.99,1.25,9.98,4.99,14.97l11.22-11.22v-3.74c0-6.24,4.99-11.22,11.22-11.22s11.22,4.99,11.22,11.22-4.99,11.22-11.22,11.22h-3.74l-11.22,9.98c12.47,7.48,28.7,4.99,36.17-7.48,7.48-12.47,4.99-28.7-7.48-36.17C103.53,1.27,98.54.02,92.3.02v-.02Z"/><path class="cls-3" d="M82.32,76.09c0-8.73-2.49-17.46-7.48-24.94l-14.97,14.97c1.25,3.74,2.49,6.24,2.49,9.98,0,6.24-2.49,11.22-6.24,14.97l7.48,19.97c12.47-7.48,18.71-21.2,18.71-34.92l.02-.03Z"/><path class="cls-3" d="M42.4,97.29c-11.22,0-21.2-8.73-21.2-19.97s8.73-21.2,19.97-21.2c3.74,0,8.73,1.25,12.47,3.74l14.97-13.72c-8.73-7.48-17.46-11.22-27.44-11.22C18.71,34.92,0,53.64,0,76.09s17.46,41.17,41.17,41.17c2.49,0,6.24,0,8.73-1.25l-7.48-18.71h-.02Z"/><path class="cls-1" d="M93.55,113.5c-8.73,0-17.46,1.25-26.19,3.74l11.22,27.44c4.99,0,9.98-1.25,14.97-1.25,34.92,0,62.37,28.7,62.37,62.37s-28.7,62.37-62.37,62.37-62.37-28.7-62.37-62.37c0-23.71,12.47-44.91,33.67-54.89l-11.22-27.44C7.48,145.93-11.22,202.06,11.22,246.96c22.45,46.16,78.58,64.85,123.48,42.4,46.16-22.45,64.85-78.58,42.4-123.48-16.21-31.18-48.64-52.38-83.57-52.38h.02Z"/></svg>